<svg height="512pt" viewBox="-23 0 511 512" width="512pt" xmlns="http://www.w3.org/2000/svg"><path d="m248.820312 113.476562h-29.988281v-22.257812c0-32.375 15.546875-63.191406 41.585938-82.429688l11.898437-8.789062 17.816406 24.117188-11.894531 8.789062c-18.421875 13.609375-29.417969 35.410156-29.417969 58.3125zm0 0" fill="#83e46f"/><path d="m461.785156 309.332031c-9.316406 44.5-30.375 87.308594-60.914062 123.804688-19.28125 23.058593-40.519532 42.339843-63.140625 57.292969-12.984375 8.597656-32.59375 21.570312-53.324219 21.570312h-.140625c-22.171875-.070312-40.382813-7.308594-50.4375-12.375-10.054687 5.066406-28.277344 12.304688-50.4375 12.375h-.140625c-20.730469 0-40.339844-12.972656-53.335938-21.570312-22.609374-14.953126-43.851562-34.234376-63.140624-57.292969-30.527344-36.496094-51.585938-79.304688-60.914063-123.804688-9.925781-47.398437-6.015625-95.21875 11.304687-138.289062 21.050782-52.34375 65.800782-84.8125 119.707032-86.851563 15.273437-.566406 31.40625.839844 50.765625 4.46875 6.550781 1.21875 12.964843 3.050782 19.171875 4.828125 7.726562 2.199219 15.035156 4.289063 21.75 5h10.535156c6.707031-.710937 14.015625-2.800781 21.742188-5 6.207031-1.777343 12.625-3.609375 19.179687-4.828125 19.363281-3.628906 35.484375-5.035156 50.769531-4.46875 53.90625 2.039063 98.644532 34.507813 119.695313 86.851563 17.320312 43.070312 21.230469 90.890625 11.304687 138.289062zm0 0" fill="#fd4a4a"/><path d="m461.785156 309.332031c-9.316406 44.5-30.375 87.308594-60.914062 123.804688-19.28125 23.058593-40.519532 42.339843-63.140625 57.292969-12.984375 8.597656-32.59375 21.570312-53.324219 21.570312h-.140625c-22.171875-.070312-40.382813-7.308594-50.4375-12.375v-401.136719h5.265625c6.707031-.710937 14.015625-2.800781 21.742188-5 6.207031-1.777343 12.625-3.609375 19.179687-4.828125 19.363281-3.628906 35.484375-5.035156 50.769531-4.46875 53.90625 2.039063 98.644532 34.507813 119.695313 86.851563 17.320312 43.070312 21.230469 90.890625 11.304687 138.289062zm0 0" fill="#e70b6a"/><path d="m388.433594 38.316406 12.917968-38.082031 28.398438 9.628906-12.917969 38.085938zm0 0" fill="#ffd92d"/><path d="m416.292969 49.597656 38.542969-11.460937 8.546874 28.742187-38.542968 11.460938zm0 0" fill="#ffd92d"/><path d="m419.894531 234.71875c0 50.78125-41.164062 91.945312-91.941406 91.945312-50.78125 0-91.945313-41.164062-91.945313-91.945312 0-50.777344 41.164063-91.941406 91.945313-91.941406 50.777344 0 91.941406 41.164062 91.941406 91.941406zm0 0" fill="#f9c4b9"/><path d="m310.859375 245.507812c-9.476563-17.460937-3.003906-39.296874 14.457031-48.777343l20.0625-10.890625c2.535156-1.375 3.574219-3.488282 4-5.019532.425782-1.535156.628906-3.882812-.832031-6.367187l-12.363281-21.042969c-21.800782-37.109375-10.410156-84.816406 25.808594-108.070312l17.011718-10.921875c16.71875-10.734375 38.972656-5.882813 49.707032 10.835937 10.734374 16.71875 5.882812 38.972656-10.835938 49.703125l-17.011719 10.925781c-3.714843 2.382813-4.882812 7.277344-2.648437 11.082032l12.363281 21.039062c11.109375 18.90625 13.992187 40.953125 8.117187 62.082032-5.875 21.128906-19.722656 38.523437-38.996093 48.984374l-20.0625 10.890626c-17.460938 9.480468-39.296875 3.007812-48.777344-14.453126zm0 0" fill="#00b763"/></svg>